<mxfile host="app.diagrams.net" modified="2021-04-06T10:09:32.112Z" agent="5.0 (Windows NT 6.1; WOW64) AppleWebKit/537.36 (KHTML, like Gecko) Chrome/89.0.4389.114 Safari/537.36" etag="AIq7u4-lz4mbXzuDQg9j" version="14.5.1" type="github">
  <diagram id="la-SOIz5cEh3NVm-GbnD" name="Page-1">
    <mxGraphModel dx="1422" dy="762" grid="0" gridSize="10" guides="1" tooltips="1" connect="1" arrows="1" fold="1" page="1" pageScale="1" pageWidth="827" pageHeight="1169" math="0" shadow="0">
      <root>
        <mxCell id="0" />
        <mxCell id="1" parent="0" />
        <mxCell id="ei4mGqOtck-iWBuuiEOP-3" value="" style="rounded=0;whiteSpace=wrap;html=1;" vertex="1" parent="1">
          <mxGeometry x="130" y="270" width="200" height="180" as="geometry" />
        </mxCell>
        <mxCell id="ei4mGqOtck-iWBuuiEOP-4" value="ApolloSDK" style="whiteSpace=wrap;html=1;aspect=fixed;" vertex="1" parent="1">
          <mxGeometry x="580" y="330" width="80" height="80" as="geometry" />
        </mxCell>
        <mxCell id="ei4mGqOtck-iWBuuiEOP-5" value="&lt;font style=&quot;font-size: 18px&quot;&gt;newYard-SDK&lt;/font&gt;" style="text;html=1;strokeColor=none;fillColor=none;align=center;verticalAlign=middle;whiteSpace=wrap;rounded=0;" vertex="1" parent="1">
          <mxGeometry x="150" y="300" width="160" height="20" as="geometry" />
        </mxCell>
        <mxCell id="ei4mGqOtck-iWBuuiEOP-8" value="" style="points=[[0.03,0.03,0],[0.5,0,0],[0.97,0.03,0],[1,0.4,0],[0.97,0.745,0],[0.5,1,0],[0.03,0.745,0],[0,0.4,0]];verticalLabelPosition=bottom;html=1;verticalAlign=top;aspect=fixed;align=center;pointerEvents=1;shape=mxgraph.cisco19.workstation;fillColor=#005073;strokeColor=none;" vertex="1" parent="1">
          <mxGeometry x="196" y="113" width="50" height="40" as="geometry" />
        </mxCell>
        <mxCell id="ei4mGqOtck-iWBuuiEOP-9" value="" style="endArrow=classic;startArrow=classic;html=1;" edge="1" parent="1">
          <mxGeometry width="50" height="50" relative="1" as="geometry">
            <mxPoint x="220" y="269" as="sourcePoint" />
            <mxPoint x="220" y="153" as="targetPoint" />
          </mxGeometry>
        </mxCell>
        <mxCell id="ei4mGqOtck-iWBuuiEOP-10" value="&lt;span&gt;ApolloSDK&lt;/span&gt;" style="rounded=0;whiteSpace=wrap;html=1;" vertex="1" parent="1">
          <mxGeometry x="170" y="368" width="120" height="60" as="geometry" />
        </mxCell>
      </root>
    </mxGraphModel>
  </diagram>
</mxfile>
